<svg width="3485" height="2500" viewBox="0 0 3485 2500" fill="none" xmlns="http://www.w3.org/2000/svg">
<g clip-path="url(#clip0_9_4)">
<path d="M2975.4 1219.4L2870.4 1154.4C2869.5 1144.2 2868.5 1134 2867.4 1123.8L2957.6 1039.7C2966.8 1031.2 2970.9 1018.5 2968.4 1006.2C2966 993.9 2957.4 983.8 2945.6 979.4L2830.3 936.3C2827.4 926.3 2824.4 916.4 2821.3 906.5L2893.2 806.6C2904.9 790.4 2901.2 767.9 2885 756.2C2880.4 752.9 2875.2 750.7 2869.7 749.8L2748.1 730C2743.4 720.8 2738.5 711.7 2733.5 702.7L2784.6 590.6C2789.8 579.2 2788.8 565.9 2781.8 555.5C2774.9 545.1 2763 539 2750.5 539.5L2627.1 543.8C2620.7 535.8 2614.2 527.9 2607.6 520.2L2636 400C2638.9 387.8 2635.2 375 2626.4 366.2C2617.6 357.3 2604.8 353.7 2592.6 356.6L2472.4 384.9C2464.6 378.3 2456.7 371.8 2448.7 365.4L2453 242C2453.5 229.5 2447.4 217.6 2437 210.7C2426.6 203.7 2413.3 202.7 2401.9 207.9L2289.9 259C2280.9 254 2271.8 249.1 2262.6 244.4L2242.8 122.8C2239.6 103.1 2221 89.7 2201.3 93C2195.8 93.9 2190.6 96.1 2186 99.3L2086 171.2C2076.2 168.1 2066.3 165.1 2056.3 162.2L2013.2 46.9C2008.8 35.2 1998.7 26.5 1986.4 24.1C1974.1 21.7 1961.5 25.8 1953 34.9L1868.9 125.2C1858.7 124.1 1848.5 123.1 1838.3 122.2L1773.3 17.2C1762.8 0.199986 1740.5 -5.00002 1723.6 5.49998C1718.8 8.39998 1714.8 12.4 1711.9 17.2L1646.9 122.2C1636.7 123.1 1626.5 124 1616.3 125.2L1532.1 34.9C1518.5 20.3 1495.7 19.5 1481.1 33.1C1477 36.9 1473.8 41.7 1471.9 47L1428.8 162.3C1418.8 165.2 1408.9 168.2 1399.1 171.3L1299.2 99.4C1289 92.1 1275.8 90.5 1264.2 95.3C1252.7 100.1 1244.4 110.5 1242.4 122.9L1222.6 244.5C1213.4 249.3 1204.3 254.1 1195.3 259.1L1083.2 208C1071.8 202.8 1058.6 203.9 1048.2 210.8C1037.8 217.7 1031.7 229.6 1032.2 242.1L1036.5 365.5C1028.5 371.9 1020.6 378.4 1012.8 385L892.6 356.7C880.4 353.8 867.6 357.5 858.8 366.3C849.9 375.1 846.3 388 849.2 400.1L877.5 520.3C870.9 528.1 864.4 536 858.1 543.9L734.7 539.6C722.2 539.2 710.4 545.3 703.4 555.6C696.4 566 695.4 579.3 700.6 590.7L751.7 702.8C746.7 711.8 741.8 720.9 737.1 730.1L615.5 749.9C595.8 753.1 582.4 771.7 585.7 791.4C586.6 796.9 588.8 802.2 592 806.7L663.9 906.6C660.8 916.5 657.7 926.4 654.9 936.4L539.6 979.5C520.9 986.5 511.4 1007.4 518.5 1026.1C520.5 1031.3 523.6 1036 527.7 1039.8L617.9 1123.9C616.8 1134.1 615.8 1144.3 614.9 1154.5L509.9 1219.5C499.3 1226.1 492.8 1237.7 492.8 1250.2C492.8 1262.7 499.3 1274.4 509.9 1280.9L614.9 1345.9C615.8 1356.1 616.8 1366.3 617.9 1376.5L527.7 1460.7C513.1 1474.3 512.3 1497.1 525.9 1511.7C529.7 1515.8 534.4 1519 539.7 1520.9L655 1564C657.9 1574 660.9 1583.9 664 1593.8L592.1 1693.7C580.4 1709.9 584.1 1732.4 600.2 1744.1C604.8 1747.4 610 1749.6 615.6 1750.5L737.2 1770.3C742 1779.5 746.8 1788.6 751.8 1797.6L700.7 1909.7C695.5 1921.1 696.6 1934.4 703.5 1944.8C710.4 1955.2 722.3 1961.3 734.8 1960.8L858.1 1956.5C864.5 1964.5 871 1972.4 877.6 1980.2L849 2100.1C846.1 2112.3 849.8 2125.1 858.6 2133.9C867.4 2142.8 880.3 2146.4 892.4 2143.5L1012.6 2115.2C1020.4 2121.8 1028.3 2128.3 1036.3 2134.6L1032 2258C1031.3 2277.9 1046.8 2294.6 1066.8 2295.4C1072.4 2295.6 1078 2294.5 1083.1 2292.2L1195.2 2241.1C1204.2 2246.1 1213.3 2251 1222.5 2255.7L1242.3 2377.2C1244.3 2389.6 1252.6 2400 1264.1 2404.8C1275.7 2409.6 1288.9 2408.1 1299.1 2400.8L1399 2328.8C1408.9 2331.9 1418.8 2335 1428.8 2337.9L1471.9 2453.2C1476.3 2464.9 1486.4 2473.6 1498.7 2476C1511 2478.5 1523.6 2474.4 1532.1 2465.2L1616.3 2375C1626.5 2376.2 1636.7 2377.1 1646.9 2378.1L1711.9 2483.1C1718.5 2493.7 1730.1 2500.2 1742.6 2500.2C1755.1 2500.2 1766.7 2493.7 1773.3 2483.1L1838.3 2378.1C1848.5 2377.2 1858.7 2376.2 1868.9 2375L1953 2465.2C1961.5 2474.4 1974.2 2478.5 1986.4 2476C1998.7 2473.6 2008.8 2465 2013.2 2453.2L2056.3 2337.9C2066.3 2335 2076.2 2332 2086.1 2328.8L2186 2400.8C2202.2 2412.4 2224.8 2408.8 2236.4 2392.6C2239.7 2388.1 2241.8 2382.8 2242.7 2377.3L2262.5 2255.8C2271.7 2251 2280.7 2246.1 2289.8 2241.2L2401.9 2292.3C2420 2300.6 2441.4 2292.7 2449.7 2274.6C2452.1 2269.5 2453.2 2263.9 2453 2258.2L2448.7 2134.8C2456.7 2128.4 2464.6 2122 2472.4 2115.4L2592.6 2143.7C2604.8 2146.6 2617.6 2143 2626.4 2134.1C2635.3 2125.3 2638.9 2112.5 2636 2100.3L2607.7 1980.1C2614.3 1972.3 2620.8 1964.4 2627.1 1956.4L2750.5 1960.7C2763 1961.2 2774.9 1955.1 2781.8 1944.7C2788.8 1934.3 2789.9 1921 2784.6 1909.6L2733.5 1797.5C2738.5 1788.4 2743.4 1779.4 2748.1 1770.2L2869.7 1750.4C2882.1 1748.4 2892.5 1740.1 2897.3 1728.6C2902.1 1717 2900.6 1703.8 2893.2 1693.7L2821.3 1593.8C2824.4 1583.9 2827.4 1574 2830.3 1564L2945.6 1520.9C2957.3 1516.5 2966 1506.4 2968.4 1494.1C2970.9 1481.8 2966.8 1469.2 2957.6 1460.7L2867.4 1376.5C2868.5 1366.3 2869.5 1356.1 2870.4 1345.9L2975.4 1280.9C2986 1274.3 2992.5 1262.7 2992.5 1250.2C2992.5 1237.6 2986 1225.9 2975.4 1219.4ZM2272.9 2090C2232.8 2081.4 2207.3 2041.9 2215.9 2001.7C2224.5 1961.5 2263.9 1936 2304 1944.6C2344.1 1953.2 2369.6 1992.8 2361 2032.9C2352.5 2073 2313 2098.6 2272.9 2090ZM2237.3 1848.8C2200.8 1841 2164.8 1864.2 2156.9 1900.8V1900.9L2119.6 2074.8C2004.6 2127 1876.9 2156 1742.4 2156C1604.8 2156 1474.4 2125.6 1357.3 2071.2L1320.1 1897.3C1312.3 1860.7 1276.3 1837.4 1239.7 1845.2L1086.2 1878.2C1057.7 1848.8 1031.2 1817.6 1006.8 1784.6H1753.8C1762.2 1784.6 1767.9 1783.1 1767.9 1775.4V1511.2C1767.9 1503.5 1762.3 1502 1753.8 1502H1535.4V1334.5H1771.7C1793.3 1334.5 1887 1340.7 1917 1460.5C1926.4 1497.4 1947 1617.2 1961.1 1655.6C1975.1 1698.6 2032.3 1784.6 2093.3 1784.6H2465.5C2469.7 1784.6 2474.2 1784.1 2479 1783.3C2453.2 1818.4 2424.9 1851.6 2394.3 1882.6L2237.3 1848.8ZM1204.2 2086.4C1164.1 2095.1 1124.6 2069.5 1116 2029.3C1107.4 1989.1 1132.9 1949.6 1173 1941C1213.1 1932.4 1252.6 1958 1261.2 1998.1C1269.7 2038.2 1244.2 2077.8 1204.2 2086.4ZM920.8 937.4C937.4 974.9 920.5 1018.9 883 1035.5C845.5 1052.2 801.7 1035.2 785.1 997.7C768.5 960.2 785.4 916.3 822.9 899.6C860.3 882.9 904.2 899.8 920.8 937.4C920.8 937.3 920.8 937.3 920.8 937.4ZM833.7 1143.8L993.6 1072.7C1027.8 1057.5 1043.2 1017.5 1028 983.3L995.1 908.8H1124.6V1492.7H863.3C840.1 1411.1 828.4 1326.8 828.5 1242C828.5 1208.8 830.3 1176 833.7 1143.8ZM1535.5 1087.1V915H1844C1859.9 915 1956.5 933.4 1956.5 1005.6C1956.5 1065.6 1882.4 1087 1821.5 1087L1535.5 1087.1ZM2656.5 1242C2656.5 1264.8 2655.7 1287.4 2654 1309.9H2560.2C2550.8 1309.9 2547 1316.1 2547 1325.3V1368.4C2547 1469.8 2489.8 1491.8 2439.8 1497.4C2392.1 1502.8 2339.2 1477.4 2332.7 1448.2C2304.6 1289.9 2257.7 1256.1 2183.6 1197.7C2275.5 1139.4 2371.1 1053.3 2371.1 938C2371.1 813.6 2285.8 735.2 2227.7 696.8C2146.1 643 2055.8 632.2 2031.5 632.2H1061.7C1193.2 485.4 1371.5 381.4 1573 343.6L1687.3 463.5C1713.1 490.5 1755.9 491.6 1782.9 465.8L1783 465.7L1910.9 343.4C2178.9 393.3 2405.8 560.1 2536.6 789L2449 986.9C2433.9 1021.1 2449.3 1061.2 2483.4 1076.3L2652 1151.2C2655 1181.1 2656.5 1211.3 2656.5 1242ZM1687.3 241.7C1716.9 213.3 1763.9 214.5 1792.3 244.1C1820.6 273.8 1819.5 320.9 1789.8 349.2C1760.2 377.6 1713.2 376.5 1684.8 346.8C1656.6 317 1657.7 270 1687.3 241.7ZM2556.3 941C2572.9 903.5 2616.6 886.6 2654.1 903.1C2654.1 903.1 2654.2 903.1 2654.2 903.2C2691.7 919.8 2708.6 963.8 2692 1001.3C2675.5 1038.8 2631.7 1055.7 2594.2 1039.2C2594.2 1039.2 2594.1 1039.2 2594.1 1039.1C2556.6 1022.5 2539.7 978.5 2556.3 941Z" fill="#E43A25"/>
</g>
<defs>
<clipPath id="clip0_9_4">
<rect width="3485" height="2500" fill="white"/>
</clipPath>
</defs>
</svg>
